<?xml version="1.0" encoding="UTF-8" standalone="no"?>
<!DOCTYPE svg PUBLIC "-//W3C//DTD SVG 1.1//EN" "http://www.w3.org/Graphics/SVG/1.1/DTD/svg11.dtd">
<svg xmlns="http://www.w3.org/2000/svg" version="1.1" viewBox="0.00 0.00 1200.00 1200.00">
<rect fill="#171717" x="368.25" y="511.25" width="2.50" height="177.50" rx="0.57"/>
<path fill="#171717" d="
  M 562.23 568.23
  C 562.05 569.47 561.75 570.74 561.32 572.03
  C 555.07 590.95 548.78 609.87 542.45 628.80
  C 542.33 629.15 542.09 629.32 541.72 629.33
  L 533.53 629.53
  C 533.14 629.54 532.80 629.29 532.68 628.92
  L 508.97 553.31
  C 508.87 552.99 509.11 552.68 509.45 552.68
  L 517.90 552.79
  C 519.36 552.81 520.64 553.77 521.06 555.17
  L 538.51 613.86
  C 538.58 614.08 538.90 614.04 538.92 613.81
  C 539.06 611.85 539.46 609.89 540.13 607.92
  C 545.90 590.77 551.68 573.63 557.49 556.50
  C 558.25 554.26 559.08 552.80 561.72 552.76
  C 564.04 552.73 567.00 552.25 567.99 555.14
  C 574.14 573.07 580.23 591.02 586.27 608.99
  C 586.73 610.36 587.08 611.70 587.32 613.00
  C 587.37 613.29 587.78 613.31 587.87 613.03
  C 593.41 594.83 598.49 576.42 603.94 558.18
  C 603.95 558.13 604.10 557.50 604.39 556.27
  C 605.58 551.19 611.88 552.38 615.78 552.56
  C 616.23 552.58 616.38 552.80 616.25 553.23
  L 592.71 628.84
  C 592.62 629.11 592.44 629.25 592.15 629.25
  L 583.75 629.25
  C 583.38 629.25 583.14 629.08 583.03 628.73
  L 562.86 568.17
  C 562.75 567.85 562.28 567.89 562.23 568.23
  Z"
/>
<path fill="#171717" d="
  M 687.91 598.73
  C 687.79 640.82 627.08 640.09 626.93 599.49
  C 626.87 584.92 626.80 569.60 626.72 553.53
  C 626.72 552.84 627.06 552.50 627.75 552.50
  L 636.71 552.50
  C 637.06 552.50 637.24 552.68 637.24 553.03
  C 637.26 568.29 637.26 583.53 637.24 598.74
  C 637.21 628.09 677.44 628.96 677.41 598.69
  C 677.39 583.44 677.45 568.19 677.58 552.94
  C 677.58 552.65 677.73 552.50 678.02 552.50
  L 687.48 552.50
  C 687.77 552.50 688.01 552.74 688.01 553.03
  C 688.01 560.25 687.98 575.48 687.91 598.73
  Z"
/>
<path fill="#171717" d="
  M 498.53 598.00
  C 498.54 640.28 439.35 640.75 437.63 601.56
  C 437.30 594.10 437.19 577.99 437.29 553.23
  C 437.30 552.91 437.46 552.75 437.77 552.75
  L 447.23 552.75
  C 447.57 552.75 447.74 552.92 447.74 553.26
  C 447.75 568.68 447.76 584.09 447.75 599.50
  C 447.74 607.99 451.64 616.04 459.49 619.41
  C 469.82 623.86 482.66 619.61 486.50 608.58
  C 487.53 605.64 488.03 600.36 488.02 592.75
  C 487.99 579.57 487.98 566.41 488.01 553.26
  C 488.01 552.98 488.24 552.75 488.52 552.75
  L 497.98 552.75
  C 498.31 552.75 498.48 552.92 498.49 553.25
  C 498.51 568.18 498.52 583.09 498.53 598.00
  Z"
/>
<path fill="#171717" d="
  M 207.51 610.00
  L 209.03 614.27
  C 209.18 614.69 209.46 614.84 209.89 614.72
  C 217.14 612.70 224.50 611.32 231.99 610.57
  C 232.32 610.54 232.50 610.36 232.52 610.03
  C 232.69 607.32 232.54 604.67 232.05 602.10
  C 230.23 592.46 221.91 587.90 222.93 577.50
  C 223.51 571.58 226.83 558.32 232.52 555.19
  C 235.19 553.72 238.24 554.47 239.47 557.29
  C 241.11 561.05 238.10 570.42 236.81 574.83
  C 235.52 579.21 238.61 583.96 241.36 587.22
  C 245.48 592.10 256.42 591.19 260.33 586.43
  C 261.78 584.68 264.62 580.69 264.48 578.35
  C 264.12 572.22 259.24 557.90 266.63 557.25
  C 274.85 556.53 278.21 573.63 278.50 579.01
  C 278.80 584.70 273.80 592.32 270.83 597.16
  C 268.06 601.65 267.45 605.42 268.13 610.35
  C 268.30 611.55 269.96 611.71 270.36 610.57
  C 272.35 604.86 279.65 601.35 284.91 599.13
  C 293.29 595.59 311.70 603.56 312.77 613.32
  C 313.43 619.33 312.54 625.06 310.10 630.53
  C 309.96 630.84 309.92 631.16 309.99 631.49
  C 312.57 644.86 292.61 651.77 282.95 654.06
  C 260.46 659.40 237.92 659.62 215.31 654.72
  C 206.51 652.81 193.45 648.04 188.46 640.75
  C 185.66 636.67 185.15 632.10 188.07 628.03
  C 188.41 627.56 188.16 626.89 187.59 626.76
  C 179.65 624.93 174.32 620.02 175.10 611.37
  C 175.80 603.53 177.48 595.20 185.77 591.94
  C 189.55 590.45 193.40 589.77 197.32 589.91
  C 202.45 590.09 206.72 594.83 210.48 597.87
  C 211.13 598.39 211.64 598.28 212.01 597.54
  C 213.35 594.84 215.87 589.60 219.11 588.91
  C 221.84 588.33 224.44 589.75 225.10 592.51
  C 226.27 597.37 220.87 605.37 217.53 608.32
  C 214.82 610.71 211.63 611.13 207.97 609.56
  C 207.69 609.44 207.41 609.71 207.51 610.00
  Z
  M 236.87 609.37
  C 236.89 609.84 237.30 610.20 237.77 610.17
  C 246.27 609.51 254.76 609.60 263.23 610.45
  C 263.62 610.49 263.94 610.16 263.89 609.77
  C 263.15 604.28 263.93 600.29 266.97 595.30
  C 269.55 591.05 274.50 583.85 274.26 579.01
  C 274.10 575.73 271.95 564.54 268.60 562.50
  C 267.09 561.59 266.45 562.01 266.68 563.76
  C 267.37 568.99 268.62 573.96 268.72 578.90
  C 268.80 582.67 264.57 588.18 262.03 590.79
  C 258.42 594.49 250.96 594.87 246.42 594.43
  C 238.89 593.69 230.38 582.19 232.50 574.74
  C 233.93 569.73 235.07 564.71 235.92 559.67
  C 236.06 558.83 235.04 558.31 234.44 558.91
  C 230.07 563.34 227.92 571.64 227.18 577.60
  C 226.36 584.26 231.92 590.92 234.54 596.21
  C 236.62 600.41 236.69 604.65 236.87 609.37
  Z
  M 183.67 615.82
  C 182.94 612.41 183.10 609.03 184.15 605.68
  C 184.50 604.55 185.85 604.07 186.83 604.73
  C 188.81 606.06 187.51 610.82 187.41 612.86
  C 187.39 613.35 187.70 613.80 188.17 613.93
  C 191.70 614.92 195.24 616.09 198.77 617.44
  C 201.15 618.35 202.78 617.63 204.72 616.34
  C 205.03 616.13 205.12 615.86 205.00 615.51
  L 201.18 604.77
  C 200.96 604.15 201.12 603.45 201.58 602.98
  C 202.58 601.95 203.69 601.98 204.92 603.07
  C 207.21 605.09 209.90 606.15 212.99 606.24
  C 213.30 606.25 213.61 606.14 213.84 605.93
  C 217.58 602.64 220.03 598.57 221.19 593.74
  C 221.29 593.35 220.98 592.97 220.58 592.99
  C 219.58 593.04 218.85 593.60 218.39 594.69
  C 210.95 612.46 205.71 594.77 197.38 594.19
  C 191.62 593.79 183.63 595.59 181.38 601.84
  C 179.60 606.77 177.23 616.92 182.81 620.22
  C 186.95 622.68 193.49 624.84 198.26 623.29
  C 199.05 623.04 199.06 621.92 198.27 621.65
  L 184.79 617.09
  C 184.22 616.90 183.79 616.41 183.67 615.82
  Z
  M 287.56 607.63
  C 289.01 607.56 289.93 609.16 289.13 610.37
  L 286.91 613.74
  C 286.66 614.11 286.82 614.62 287.23 614.79
  L 300.20 620.29
  C 300.39 620.37 300.60 620.25 300.64 620.05
  C 300.93 618.52 301.21 616.95 301.48 615.36
  C 301.68 614.21 302.20 613.60 303.03 613.54
  C 304.48 613.44 305.67 614.66 305.53 616.10
  C 305.09 620.69 304.31 626.91 299.60 629.31
  C 295.98 631.15 292.45 633.03 289.02 634.95
  C 288.37 635.31 288.40 636.25 289.07 636.57
  C 290.58 637.30 292.05 637.42 293.48 636.93
  C 305.27 632.91 310.04 626.29 308.53 613.58
  C 307.76 607.06 292.82 600.82 287.01 602.95
  C 283.01 604.42 276.12 607.49 274.51 611.80
  C 272.92 616.05 272.77 620.43 274.06 624.93
  C 274.29 625.75 275.22 626.14 275.97 625.74
  C 277.49 624.92 276.85 615.79 278.22 613.32
  C 280.21 609.75 283.32 607.85 287.56 607.63
  Z
  M 238.7573 623.8541
  C 238.76 623.55 238.52 623.30 238.2130 623.2983
  L 232.8333 623.2420
  C 232.53 623.24 232.28 623.48 232.2776 623.7862
  L 232.2227 629.0259
  C 232.22 629.33 232.46 629.58 232.7670 629.5817
  L 238.1467 629.6380
  C 238.45 629.64 238.70 629.40 238.7024 629.0938
  L 238.7573 623.8541
  Z
  M 261.4775 629.2820
  C 261.47 628.97 261.22 628.72 260.9127 628.7269
  L 255.5929 628.7733
  C 255.28 628.78 255.04 629.03 255.0378 629.3382
  L 255.0825 634.4580
  C 255.09 634.77 255.34 635.02 255.6473 635.0131
  L 260.9671 634.9667
  C 261.28 634.96 261.52 634.71 261.5222 634.4018
  L 261.4775 629.2820
  Z
  M 230.2457 634.5244
  C 230.24 634.10 229.90 633.76 229.4743 633.7558
  L 224.6343 633.7642
  C 224.21 633.76 223.86 634.11 223.8657 634.5356
  L 223.8743 639.4756
  C 223.88 639.90 224.22 640.24 224.6457 640.2442
  L 229.4857 640.2358
  C 229.91 640.24 230.26 639.89 230.2543 639.4644
  L 230.2457 634.5244
  Z"
/>
<path fill="#171717" d="
  M 249.6899 586.8683
  C 244.22 586.54 240.10 580.78 240.5075 573.9911
  C 240.91 567.20 245.68 561.97 251.1501 562.2917
  C 256.62 562.62 260.74 568.38 260.3325 575.1689
  C 259.93 581.96 255.16 587.19 249.6899 586.8683
  Z
  M 249.9974 582.5483
  C 253.12 582.72 255.84 579.28 256.0817 574.8661
  C 256.32 570.45 253.98 566.74 250.8626 566.5717
  C 247.74 566.40 245.02 569.84 244.7783 574.2539
  C 244.54 578.67 246.88 582.38 249.9974 582.5483
  Z"
/>
<path fill="#171717" d="
  M 188.9212 589.6711
  C 182.93 590.34 177.45 585.25 176.6680 578.3061
  C 175.89 571.36 180.11 565.18 186.0988 564.5089
  C 192.09 563.84 197.57 568.93 198.3520 575.8739
  C 199.13 582.82 194.91 589.00 188.9212 589.6711
  Z
  M 188.3493 585.3787
  C 191.97 585.02 194.54 581.00 194.0774 576.4155
  C 193.62 571.83 190.31 568.40 186.6907 568.7613
  C 183.07 569.12 180.50 573.14 180.9626 577.7245
  C 181.42 582.31 184.73 585.74 188.3493 585.3787
  Z"
/>
<path fill="#171717" d="
  M 300.0122 598.1125
  C 294.27 596.35 291.28 589.52 293.3305 582.8638
  C 295.38 576.21 301.69 572.24 307.4278 574.0075
  C 313.17 575.77 316.16 582.60 314.1095 589.2562
  C 312.06 595.91 305.75 599.88 300.0122 598.1125
  Z
  M 301.3485 594.0661
  C 304.85 595.10 308.76 592.36 310.0674 587.9402
  C 311.38 583.52 309.60 579.09 306.0915 578.0539
  C 302.59 577.02 298.68 579.76 297.3726 584.1798
  C 296.06 588.60 297.84 593.03 301.3485 594.0661
  Z"
/>
<path fill="#171717" d="
  M 770.92 583.71
  C 770.58 583.78 770.38 584.14 770.51 584.47
  C 776.91 600.54 761.81 610.98 747.16 608.53
  C 743.93 607.99 741.58 609.17 741.14 612.43
  C 739.85 621.99 773.63 612.68 777.21 627.11
  C 779.15 634.98 773.50 642.79 766.25 645.76
  C 756.56 649.72 738.93 650.55 731.39 641.15
  C 725.46 633.75 729.76 626.81 737.23 623.45
  C 737.54 623.31 737.60 622.89 737.33 622.68
  C 736.51 622.03 735.63 621.70 734.96 620.98
  C 730.48 616.18 733.77 609.52 738.61 606.80
  C 739.19 606.47 739.22 605.65 738.66 605.29
  C 730.94 600.31 728.75 589.66 733.97 582.13
  C 739.97 573.48 752.91 572.43 762.01 576.14
  C 766.24 577.87 773.15 576.97 777.80 577.02
  C 778.27 577.02 778.50 577.25 778.50 577.72
  L 778.50 581.52
  C 778.50 581.91 778.23 582.24 777.85 582.32
  L 770.92 583.71
  Z
  M 763.3399 590.7181
  C 763.28 585.32 758.86 580.99 753.4682 581.0509
  L 749.7084 581.0903
  C 744.31 581.15 739.98 585.57 740.0412 590.9620
  L 740.0601 592.7619
  C 740.12 598.16 744.54 602.49 749.9318 602.4291
  L 753.6916 602.3897
  C 759.09 602.33 763.42 597.91 763.3588 592.5180
  L 763.3399 590.7181
  Z
  M 738.17 629.38
  C 729.88 643.84 766.28 645.93 768.72 633.66
  C 770.55 624.44 752.86 625.10 745.92 624.91
  C 742.32 624.81 739.85 626.46 738.17 629.38
  Z"
/>
<path fill="#171717" d="
  M 818.79 622.36
  C 818.75 621.95 818.25 621.77 817.95 622.06
  C 813.37 626.56 808.11 629.10 802.18 629.68
  C 793.97 630.47 786.47 627.46 784.70 618.78
  C 781.19 601.53 806.29 599.16 817.38 598.55
  C 817.69 598.53 817.92 598.27 817.91 597.96
  C 817.63 590.61 817.71 582.97 808.35 581.71
  C 802.17 580.87 797.49 584.35 792.66 587.27
  C 792.34 587.46 791.95 587.50 791.60 587.39
  C 789.39 586.65 787.95 585.12 787.28 582.80
  C 787.21 582.55 787.26 582.34 787.45 582.17
  C 801.14 569.61 827.03 569.94 826.99 594.27
  C 826.97 605.58 827.00 616.90 827.07 628.24
  C 827.08 628.61 826.90 628.83 826.53 628.92
  C 820.56 630.32 819.28 627.63 818.79 622.36
  Z
  M 794.14 612.74
  C 792.83 616.09 794.43 622.09 799.03 622.77
  C 806.57 623.88 812.72 621.62 817.47 615.97
  C 817.66 615.74 817.75 615.48 817.75 615.19
  L 817.75 605.30
  C 817.75 604.99 817.59 604.83 817.28 604.82
  C 811.10 604.80 796.89 605.70 794.14 612.74
  Z"
/>
<path fill="#171717" d="
  M 879.92 584.20
  C 881.00 583.13 881.70 581.32 882.55 580.37
  C 890.92 570.93 908.30 571.91 913.18 583.70
  C 914.34 586.50 914.94 592.08 914.98 600.44
  C 915.03 609.33 915.04 618.43 915.01 627.75
  C 915.00 628.58 914.58 629.00 913.75 629.00
  L 906.02 629.00
  C 905.74 629.00 905.52 628.78 905.52 628.50
  C 905.50 616.65 905.46 604.82 905.39 593.02
  C 905.30 579.52 888.67 577.66 884.33 588.41
  C 883.47 590.56 883.03 594.56 883.01 600.42
  C 882.99 609.31 883.00 618.49 883.05 627.95
  C 883.05 628.53 882.58 629.00 882.00 629.00
  L 874.02 629.00
  C 873.73 629.00 873.49 628.76 873.49 628.47
  C 873.52 617.94 873.51 607.44 873.44 596.96
  C 873.41 592.44 873.07 589.31 872.42 587.58
  C 868.59 577.43 856.56 581.78 851.59 588.23
  C 851.37 588.52 851.25 588.86 851.25 589.22
  L 851.25 628.34
  C 851.25 628.70 850.96 628.99 850.60 628.99
  L 842.00 629.00
  C 841.67 629.00 841.50 628.83 841.50 628.50
  L 841.50 575.62
  C 841.50 575.21 841.71 575.00 842.13 575.00
  L 847.72 575.00
  C 848.92 575.00 849.60 575.59 849.77 576.78
  L 850.47 581.69
  C 850.51 581.94 850.81 582.04 850.98 581.86
  C 853.67 579.13 856.43 576.38 860.03 575.13
  C 869.06 572.00 875.49 574.99 879.31 584.08
  C 879.45 584.41 879.65 584.45 879.92 584.20
  Z"
/>
<path fill="#171717" d="
  M 936.14 602.42
  C 935.98 610.12 939.30 618.40 947.02 621.10
  C 954.73 623.79 961.60 621.13 968.35 616.92
  C 968.67 616.72 969.07 616.72 969.40 616.91
  C 971.11 617.92 972.44 619.32 973.41 621.09
  C 973.61 621.46 973.55 621.77 973.24 622.04
  C 963.40 630.60 946.76 632.68 936.20 624.16
  C 926.97 616.69 924.77 602.43 927.99 591.24
  C 935.58 564.85 976.71 569.06 974.22 600.27
  C 974.15 601.19 973.38 601.89 972.46 601.90
  L 936.51 602.04
  C 936.26 602.05 936.14 602.17 936.14 602.42
  Z
  M 937.05 596.04
  L 965.75 595.94
  C 965.91 595.94 966.05 595.80 966.05 595.64
  L 966.04 595.42
  C 966.02 587.41 959.69 580.94 951.92 580.97
  L 950.76 580.97
  C 942.99 581.00 936.72 587.51 936.74 595.52
  L 936.75 595.74
  C 936.75 595.91 936.88 596.04 937.05 596.04
  Z"
/>
<path fill="#171717" d="
  M 988.39 599.88
  C 982.12 595.34 982.69 585.89 986.79 580.53
  C 994.38 570.62 1010.88 573.11 1019.39 579.69
  C 1019.74 579.96 1019.79 580.28 1019.54 580.65
  L 1017.02 584.28
  C 1016.53 585.00 1015.55 585.18 1014.82 584.70
  C 1009.10 580.93 998.53 578.53 993.85 585.05
  C 987.16 594.38 1007.94 598.49 1012.51 600.46
  C 1021.89 604.50 1023.02 615.50 1017.06 622.87
  C 1008.84 633.05 992.06 630.56 982.61 623.57
  C 982.34 623.36 982.28 623.11 982.43 622.80
  C 983.65 620.35 984.83 617.68 987.96 618.32
  C 988.27 618.38 988.56 618.51 988.82 618.71
  C 994.04 622.67 999.84 623.73 1006.22 621.90
  C 1011.27 620.44 1013.51 613.39 1010.00 609.69
  C 1005.24 604.68 994.47 604.29 988.39 599.88
  Z"
/>
</svg>
