<?xml version="1.0" encoding="UTF-8"?><svg id="Layer_1" xmlns="http://www.w3.org/2000/svg" viewBox="0 0 1200 891.28"><defs><style>.cls-1{fill:#171717;}</style></defs><path class="cls-1" d="M278.98,477.02l13.05,36.67c1.29,3.61,3.69,4.9,7.39,3.86,62.26-17.35,125.47-29.2,189.79-35.64,2.83-.26,4.38-1.8,4.55-4.64,1.46-23.27,.17-46.03-4.04-68.1-15.63-82.79-87.08-121.95-78.32-211.26,4.98-50.84,33.49-164.72,82.36-191.6,22.93-12.62,49.12-6.18,59.69,18.03,14.08,32.29-11.77,112.76-22.84,150.63-11.08,37.62,15.46,78.41,39.07,106.4,35.38,41.91,129.33,34.09,162.91-6.78,12.45-15.03,36.84-49.29,35.64-69.39-3.09-52.64-45-175.62,18.46-181.2,70.59-6.18,99.45,140.67,101.94,186.87,2.58,48.87-40.36,114.3-65.87,155.87-23.79,38.56-29.03,70.94-23.19,113.27,1.46,10.31,15.72,11.68,19.15,1.89,17.09-49.04,79.78-79.18,124.95-98.25,71.97-30.4,230.07,38.04,239.26,121.86,5.67,51.61-1.98,100.82-22.93,147.8-1.2,2.66-1.55,5.41-.94,8.24,22.16,114.82-149.26,174.16-232.22,193.83-193.14,45.86-386.71,47.75-580.89,5.67-75.57-16.4-187.73-57.37-230.59-119.97-24.05-35.04-28.43-74.29-3.35-109.24,2.92-4.04,.77-9.79-4.12-10.91C39.72,605.24-6.05,563.07,.65,488.79c6.01-67.33,20.44-138.87,91.63-166.86,32.46-12.8,65.53-18.64,99.19-17.43,44.06,1.55,80.73,42.25,113.02,68.36,5.58,4.47,9.96,3.52,13.14-2.83,11.51-23.19,33.15-68.19,60.97-74.11,23.44-4.98,45.77,7.21,51.44,30.92,10.05,41.74-36.33,110.44-65.01,135.77-23.27,20.53-50.67,24.13-82.1,10.65-2.4-1.03-4.81,1.29-3.95,3.78Zm252.14-5.41c.17,4.04,3.69,7.13,7.73,6.87,73-5.67,145.91-4.9,218.65,2.4,3.35,.34,6.1-2.49,5.67-5.84-6.36-47.15,.34-81.41,26.45-124.27,22.16-36.5,64.67-98.33,62.61-139.9-1.37-28.17-19.84-124.27-48.61-141.79-12.97-7.81-18.46-4.21-16.49,10.82,5.93,44.91,16.66,87.6,17.52,130.02,.69,32.38-35.64,79.7-57.45,102.11-31,31.78-95.07,35.04-134.06,31.26-64.67-6.35-137.75-105.12-119.54-169.1,12.28-43.03,22.07-86.14,29.37-129.42,1.2-7.21-7.56-11.68-12.71-6.53-37.53,38.04-55.99,109.32-62.35,160.51-7.04,57.2,40.71,114.39,63.21,159.82,17.86,36.07,18.46,72.48,20.01,113.02Zm-456.88,55.39c-6.27-29.29-4.9-58.31,4.12-87.08,3.01-9.7,14.6-13.83,23.02-8.16,17,11.42,5.84,52.3,4.98,69.82-.17,4.21,2.49,8.07,6.53,9.19,30.32,8.5,60.72,18.55,91.03,30.14,20.44,7.81,34.44,1.63,51.1-9.45,2.66-1.8,3.44-4.12,2.4-7.13l-32.81-92.23c-1.89-5.32-.52-11.34,3.44-15.37,8.59-8.85,18.12-8.59,28.68,.77,19.67,17.35,42.77,26.45,69.3,27.22,2.66,.09,5.32-.86,7.3-2.66,32.12-28.25,53.16-63.21,63.12-104.69,.86-3.35-1.8-6.61-5.24-6.44-8.59,.43-14.86,5.24-18.81,14.6-63.89,152.61-108.89,.69-180.43-4.29-49.47-3.44-118.08,12.02-137.41,65.7-15.29,42.34-35.64,129.51,12.28,157.85,35.55,21.13,91.72,39.68,132.68,26.36,6.78-2.15,6.87-11.77,.09-14.08l-115.77-39.16c-4.9-1.63-8.59-5.84-9.62-10.91Zm892.2-70.33c12.45-.6,20.35,13.14,13.48,23.53l-19.07,28.94c-2.15,3.18-.77,7.56,2.75,9.02l111.39,47.23c1.63,.69,3.44-.34,3.78-2.06,2.49-13.14,4.89-26.62,7.21-40.28,1.72-9.88,6.18-15.11,13.31-15.63,12.45-.86,22.67,9.62,21.47,21.99-3.78,39.42-10.48,92.84-50.93,113.45-31.09,15.8-61.4,31.95-90.86,48.44-5.58,3.09-5.32,11.16,.43,13.91,12.97,6.27,25.59,7.3,37.87,3.09,101.25-34.52,142.22-91.38,129.25-200.53-6.61-55.99-134.92-109.58-184.81-91.29-34.35,12.62-93.52,38.99-107.35,76-13.65,36.5-14.94,74.11-3.86,112.76,1.98,7.04,9.96,10.39,16.4,6.96,13.05-7.04,7.56-85.45,19.32-106.66,17.09-30.66,43.8-46.98,80.21-48.87Zm-419.11,139.33c.02-2.61-2.04-4.76-4.67-4.77l-46.2-.48c-2.6-.02-4.75,2.04-4.77,4.67l-.47,45c-.02,2.61,2.04,4.76,4.67,4.77l46.2,.48c2.6,.02,4.75-2.04,4.77-4.67l.47-45Zm195.12,46.61c-.06-2.68-2.21-4.83-4.85-4.77l-45.69,.4c-2.69,.06-4.75,2.2-4.77,4.85l.38,43.97c.06,2.68,2.21,4.83,4.85,4.77l45.69-.4c2.69-.06,4.75-2.2,4.77-4.85l-.38-43.97Zm-268.22,45.02c-.05-3.65-2.97-6.56-6.62-6.6l-41.57,.07c-3.64-.04-6.65,2.97-6.6,6.62l.07,42.42c.05,3.65,2.97,6.56,6.62,6.6l41.57-.07c3.64,.04,6.65-2.97,6.6-6.62l-.07-42.42Z"/><path class="cls-1" d="M641.22,278.37c-46.97-2.82-82.36-52.29-78.86-110.59,3.46-58.32,44.42-103.24,91.4-100.47,46.97,2.82,82.36,52.29,78.86,110.59-3.46,58.32-44.42,103.24-91.4,100.47Zm2.64-37.1c26.82,1.47,50.18-28.07,52.25-65.97,2.05-37.92-18.05-69.79-44.82-71.23-26.82-1.47-50.18,28.07-52.25,65.97-2.05,37.92,18.05,69.79,44.82,71.23Z"/><path class="cls-1" d="M119.34,302.44c-51.45,5.74-98.51-37.97-105.23-97.6-6.68-59.65,29.56-112.73,80.99-118.49,51.45-5.74,98.51,37.97,105.23,97.6,6.68,59.65-29.56,112.73-80.99,118.49Zm-4.91-36.86c31.09-3.08,53.17-37.6,49.19-76.98-3.93-39.38-32.35-68.84-63.44-65.73-31.09,3.08-53.17,37.6-49.19,76.98,3.93,39.38,32.35,68.84,63.44,65.73Z"/><path class="cls-1" d="M1073.38,374.93c-49.31-15.14-74.99-73.79-57.38-130.95,17.6-57.14,71.79-91.24,121.07-76.06,49.31,15.14,74.99,73.79,57.38,130.95-17.6,57.14-71.79,91.24-121.07,76.06Zm11.48-34.75c30.07,8.88,63.65-14.65,74.88-52.61,11.27-37.96-4.01-76-34.14-84.9-30.07-8.88-63.65,14.65-74.88,52.61-11.27,37.96,4.01,76,34.14,84.9Z"/></svg>