<?xml version="1.0" encoding="UTF-8"?><svg id="Layer_1" xmlns="http://www.w3.org/2000/svg" viewBox="0 0 1200.08 891.28"><defs><style>.cls-1{fill:#fff;}</style></defs><path class="cls-1" d="M279.03,476.91l13.1,36.7c1.3,3.6,3.7,4.9,7.4,3.9,62.3-17.3,125.5-29.2,189.8-35.6,2.8-.3,4.4-1.8,4.6-4.6,1.5-23.3,.2-46-4-68.1-15.6-82.8-87.1-121.9-78.3-211.3,5-50.8,33.5-164.7,82.4-191.6,22.9-12.6,49.1-6.2,59.7,18,14.1,32.3-11.8,112.8-22.8,150.6-11.1,37.6,15.5,78.4,39.1,106.4,35.4,41.9,129.3,34.1,162.9-6.8,12.5-15,36.8-49.3,35.6-69.4-3.1-52.6-45-175.6,18.5-181.2,70.6-6.2,99.4,140.7,101.9,186.9,2.6,48.9-40.4,114.3-65.9,155.9-23.8,38.6-29,70.9-23.2,113.3,1.5,10.3,15.7,11.7,19.2,1.9,17.1-49,79.8-79.2,125-98.2,72-30.4,230.1,38,239.3,121.9,5.7,51.6-2,100.8-22.9,147.8-1.2,2.7-1.5,5.4-.9,8.2,22.2,114.8-149.3,174.2-232.2,193.8-193.1,45.9-386.7,47.7-580.9,5.7-75.6-16.4-187.7-57.4-230.6-120-24-35-28.4-74.3-3.3-109.2,2.9-4,.8-9.8-4.1-10.9C39.73,605.11-5.97,562.91,.63,488.61c6-67.3,20.4-138.9,91.6-166.9,32.5-12.8,65.5-18.6,99.2-17.4,44.1,1.5,80.7,42.3,113,68.4,5.6,4.5,10,3.5,13.1-2.8,11.5-23.2,33.1-68.2,61-74.1,23.4-5,45.8,7.2,51.4,30.9,10,41.7-36.3,110.4-65,135.8-23.3,20.5-50.7,24.1-82.1,10.6-2.3-1-4.7,1.3-3.8,3.8Zm252.1-5.4c.2,4,3.7,7.1,7.7,6.9,73-5.7,145.9-4.9,218.6,2.4,3.3,.3,6.1-2.5,5.7-5.8-6.4-47.1,.3-81.4,26.5-124.3,22.2-36.5,64.7-98.3,62.6-139.9-1.4-28.2-19.8-124.3-48.6-141.8-13-7.8-18.5-4.2-16.5,10.8,5.9,44.9,16.7,87.6,17.5,130,.7,32.4-35.6,79.7-57.5,102.1-31,31.8-95.1,35-134.1,31.3-64.7-6.4-137.7-105.1-119.5-169.1,12.3-43,22.1-86.1,29.4-129.4,1.2-7.2-7.6-11.7-12.7-6.5-37.5,38-56,109.3-62.3,160.5-7,57.2,40.7,114.4,63.2,159.8,17.9,36,18.5,72.4,20,113Zm-456.9,55.4c-6.3-29.3-4.9-58.3,4.1-87.1,3-9.7,14.6-13.8,23-8.2,17,11.4,5.8,52.3,5,69.8-.2,4.2,2.5,8.1,6.5,9.2,30.3,8.5,60.7,18.6,91,30.1,20.4,7.8,34.4,1.6,51.1-9.4,2.7-1.8,3.4-4.1,2.4-7.1l-32.8-92.2c-1.9-5.3-.5-11.3,3.4-15.4,8.6-8.8,18.1-8.6,28.7,.8,19.7,17.3,42.8,26.5,69.3,27.2,2.7,.1,5.3-.9,7.3-2.7,32.1-28.3,53.2-63.2,63.1-104.7,.9-3.3-1.8-6.6-5.2-6.4-8.6,.4-14.9,5.2-18.8,14.6-63.9,152.6-108.9,.7-180.4-4.3-49.5-3.4-118.1,12-137.4,65.7-15.3,42.3-35.6,129.5,12.3,157.8,35.6,21.1,91.7,39.7,132.7,26.4,6.8-2.1,6.9-11.8,.1-14.1l-115.7-39.1c-4.9-1.7-8.6-5.9-9.7-10.9Zm892.2-70.4c12.5-.6,20.4,13.1,13.5,23.5l-19.1,28.9c-2.1,3.2-.8,7.6,2.7,9l111.4,47.2c1.6,.7,3.4-.3,3.8-2.1,2.5-13.1,4.9-26.6,7.2-40.3,1.7-9.9,6.2-15.1,13.3-15.6,12.5-.9,22.7,9.6,21.5,22-3.8,39.4-10.5,92.8-50.9,113.4-31.1,15.8-61.4,31.9-90.9,48.4-5.6,3.1-5.3,11.2,.4,13.9,13,6.3,25.6,7.3,37.9,3.1,101.3-34.5,142.2-91.4,129.2-200.5-6.6-56-134.9-109.6-184.8-91.3-34.4,12.6-93.5,39-107.3,76-13.7,36.5-14.9,74.1-3.9,112.8,2,7,10,10.4,16.4,7,13.1-7,7.6-85.4,19.3-106.7,17.2-30.5,43.9-46.8,80.3-48.7Zm-419.1,139.4c0-2.6-2-4.8-4.7-4.8l-46.2-.5c-2.6,0-4.8,2-4.8,4.7l-.5,45c0,2.6,2,4.8,4.7,4.8l46.2,.5c2.6,0,4.8-2,4.8-4.7l.5-45Zm195.2,46.6c-.1-2.7-2.2-4.8-4.9-4.8l-45.7,.4c-2.7,.1-4.7,2.2-4.8,4.9l.4,44c.1,2.7,2.2,4.8,4.9,4.8l45.7-.4c2.7-.1,4.7-2.2,4.8-4.9l-.4-44Zm-268.3,45c0-3.6-3-6.6-6.6-6.6l-41.6,.1c-3.6,0-6.6,3-6.6,6.6l.1,42.4c0,3.6,3,6.6,6.6,6.6l41.6-.1c3.6,0,6.6-3,6.6-6.6l-.1-42.4Z"/><path class="cls-1" d="M641.23,278.21c-47-2.8-82.4-52.3-78.9-110.6,3.5-58.3,44.4-103.2,91.4-100.5,47,2.8,82.4,52.3,78.9,110.6-3.4,58.4-44.4,103.3-91.4,100.5Zm2.7-37.1c26.8,1.5,50.2-28.1,52.3-66,2-37.9-18-69.8-44.8-71.2-26.8-1.5-50.2,28.1-52.3,66-2.1,37.9,18,69.8,44.8,71.2Z"/><path class="cls-1" d="M119.33,302.31c-51.5,5.7-98.5-38-105.2-97.6-6.7-59.7,29.6-112.7,81-118.5,51.5-5.7,98.5,38,105.2,97.6,6.7,59.7-29.5,112.7-81,118.5Zm-4.9-36.9c31.1-3.1,53.2-37.6,49.2-77-3.9-39.4-32.4-68.8-63.4-65.7-31.1,3.1-53.2,37.6-49.2,77,3.9,39.4,32.4,68.8,63.4,65.7Z"/><path class="cls-1" d="M1073.43,374.81c-49.3-15.1-75-73.8-57.4-131,17.6-57.1,71.8-91.2,121.1-76.1,49.3,15.1,75,73.8,57.4,131-17.7,57.2-71.8,91.3-121.1,76.1Zm11.5-34.8c30.1,8.9,63.6-14.7,74.9-52.6,11.3-38-4-76-34.1-84.9s-63.6,14.7-74.9,52.6c-11.4,38,3.9,76,34.1,84.9Z"/></svg>